<?xml version="1.0" encoding="UTF-8"?>
<svg id="Layer_1" data-name="Layer 1" xmlns="http://www.w3.org/2000/svg" xmlns:xlink="http://www.w3.org/1999/xlink" viewBox="0 0 1373.17 1110.39">
  <defs>
    <style>
      .cls-1 {
        fill: #fff3a7;
      }

      .cls-1, .cls-2, .cls-3, .cls-4, .cls-5, .cls-6, .cls-7, .cls-8, .cls-9, .cls-10, .cls-11, .cls-12, .cls-13, .cls-14, .cls-15, .cls-16, .cls-17, .cls-18, .cls-19, .cls-20, .cls-21, .cls-22, .cls-23, .cls-24, .cls-25, .cls-26, .cls-27, .cls-28, .cls-29, .cls-30, .cls-31 {
        stroke-width: 0px;
      }

      .cls-2 {
        fill: url(#linear-gradient-12);
      }

      .cls-3 {
        fill: url(#linear-gradient);
      }

      .cls-4 {
        fill: #61411a;
      }

      .cls-5 {
        fill: #fff3a2;
      }

      .cls-6 {
        fill: #fffebd;
      }

      .cls-7 {
        fill: url(#linear-gradient-6);
      }

      .cls-8 {
        fill: #8e5f17;
      }

      .cls-9 {
        fill: #946925;
      }

      .cls-10 {
        fill: #f7d26a;
      }

      .cls-11 {
        fill: url(#linear-gradient-11);
      }

      .cls-12 {
        fill: #fdf7a1;
      }

      .cls-13 {
        fill: url(#linear-gradient-5);
      }

      .cls-14 {
        fill: #7b4f12;
      }

      .cls-15, .cls-32 {
        fill: none;
      }

      .cls-33 {
        filter: url(#drop-shadow-1);
      }

      .cls-16 {
        fill: #f7da74;
      }

      .cls-17 {
        fill: url(#linear-gradient-13);
      }

      .cls-32 {
        stroke: #fff;
        stroke-miterlimit: 10;
      }

      .cls-18 {
        fill: url(#linear-gradient-2);
      }

      .cls-19 {
        fill: #b88931;
      }

      .cls-20 {
        fill: url(#linear-gradient-7);
      }

      .cls-21 {
        fill: url(#linear-gradient-3);
      }

      .cls-22 {
        fill: #734c11;
      }

      .cls-34 {
        clip-path: url(#clippath);
      }

      .cls-23 {
        fill: url(#linear-gradient-9);
      }

      .cls-24 {
        fill: url(#linear-gradient-8);
      }

      .cls-25 {
        fill: #926426;
      }

      .cls-26 {
        fill: #976b24;
      }

      .cls-27 {
        fill: url(#linear-gradient-10);
      }

      .cls-28 {
        fill: #73521d;
      }

      .cls-29 {
        fill: url(#linear-gradient-4);
      }

      .cls-30 {
        fill: #b7832d;
      }

      .cls-31 {
        fill: #7c4e13;
      }
    </style>
    <clipPath id="clippath">
      <path class="cls-15" d="M1217.02,389.61v63.8c0,15.5-12.19,28.26-27.67,28.97-104.31,4.79-190,41.11-241.31,102.27-31.3,37.32-46.31,81.49-41.16,121.19,4.64,35.77,25.91,65.43,63.21,88.17,30.31,18.47,60.01,25.19,60.31,25.26,13.35,2.88,22.8,14.67,22.8,28.33v107.52c0,16.01-12.98,29-29,29h-184.55c-10.66,0-20-5.02-25.05-14.38-2.5-3.89-31.95-46.51-116.37-46.51-41.31,0-77.75,8.43-105.39,24.37-19.16,11.06-28.04,22.26-29.22,23.8-5.3,8.39-14.05,12.72-24,12.72h-176.13c-16.01,0-29-12.99-29-29v-105.76c0-13.24,8.97-24.83,21.8-28.09,122.64-31.12,153.85-82.36,157.59-116.24,14.09-127.68-140.89-111.35-242.36-186.21-49.65-36.63-90.87-71.27-111.95-110.78-5.57-10.44-4.31-23.38,3.63-32.61,5.6-6.51,13.92-10.05,22.5-10.05h265.78c.74,0,7.07.03,14.25.09,1.07-8.86,5.19-21,17.9-37.44l191.06-193.15c5.45-5.51,12.87-8.61,20.62-8.61h.14c7.8.04,15.25,3.22,20.68,8.82l187.23,193.15c8.11,8.36,10.42,20.77,5.88,31.49-.12.3-.25.59-.38.88h279.16c16.01,0,29,12.98,29,29Z"/>
    </clipPath>
    <linearGradient id="linear-gradient" x1="686.58" y1="126.27" x2="686.58" y2="984.12" gradientUnits="userSpaceOnUse">
      <stop offset="0" stop-color="#48524a"/>
      <stop offset=".39" stop-color="#293336"/>
      <stop offset=".74" stop-color="#162029"/>
      <stop offset=".97" stop-color="#0f1925"/>
    </linearGradient>
    <filter id="drop-shadow-1" filterUnits="userSpaceOnUse">
      <feOffset dx="10" dy="7"/>
      <feGaussianBlur result="blur" stdDeviation="10"/>
      <feFlood flood-color="#000" flood-opacity=".75"/>
      <feComposite in2="blur" operator="in"/>
      <feComposite in="SourceGraphic"/>
    </filter>
    <linearGradient id="linear-gradient-2" x1="775.75" y1="124.35" x2="775.75" y2="924.19" gradientUnits="userSpaceOnUse">
      <stop offset="0" stop-color="#fcfbba"/>
      <stop offset=".14" stop-color="#e8d180"/>
      <stop offset=".31" stop-color="#d09f39"/>
      <stop offset=".97" stop-color="#94621d"/>
    </linearGradient>
    <linearGradient id="linear-gradient-3" x1="531.79" y1="366.88" x2="531.79" y2="698.41" xlink:href="#linear-gradient-2"/>
    <linearGradient id="linear-gradient-4" x1="318.32" y1="387.95" x2="318.32" y2="554.24" xlink:href="#linear-gradient-2"/>
    <linearGradient id="linear-gradient-5" x1="365.71" y1="902.24" x2="378.61" y2="902.24" gradientUnits="userSpaceOnUse">
      <stop offset="0" stop-color="#b18838"/>
      <stop offset="1" stop-color="#cca548"/>
    </linearGradient>
    <linearGradient id="linear-gradient-6" x1="301.65" y1="803.65" x2="678.18" y2="550.83" gradientUnits="userSpaceOnUse">
      <stop offset=".33" stop-color="#eecb67"/>
      <stop offset=".37" stop-color="#e8c462"/>
      <stop offset=".53" stop-color="#d1a74c"/>
      <stop offset=".69" stop-color="#c1913c"/>
      <stop offset=".85" stop-color="#b78533"/>
      <stop offset="1" stop-color="#b48130"/>
    </linearGradient>
    <linearGradient id="linear-gradient-7" x1="986.49" y1="868.37" x2="1041.06" y2="416.69" gradientUnits="userSpaceOnUse">
      <stop offset="0" stop-color="#e4be53"/>
      <stop offset=".06" stop-color="#cca545"/>
      <stop offset=".14" stop-color="#b28935"/>
      <stop offset=".23" stop-color="#9c7129"/>
      <stop offset=".33" stop-color="#8b5f1f"/>
      <stop offset=".46" stop-color="#7f5318"/>
      <stop offset=".62" stop-color="#784c14"/>
      <stop offset="1" stop-color="#774a13"/>
    </linearGradient>
    <linearGradient id="linear-gradient-8" x1="582.27" y1="875.02" x2="815.05" y2="873.2" gradientUnits="userSpaceOnUse">
      <stop offset="0" stop-color="#502d17"/>
      <stop offset="1" stop-color="#ad7e2e"/>
    </linearGradient>
    <linearGradient id="linear-gradient-9" x1="775.75" y1="407.08" x2="775.75" y2="860.14" gradientUnits="userSpaceOnUse">
      <stop offset="0" stop-color="#dda842"/>
      <stop offset=".02" stop-color="#daa540"/>
      <stop offset=".17" stop-color="#c68f38"/>
      <stop offset=".32" stop-color="#ba8333"/>
      <stop offset=".46" stop-color="#b77f32"/>
      <stop offset=".57" stop-color="#ba8435"/>
      <stop offset=".7" stop-color="#c5923f"/>
      <stop offset=".85" stop-color="#d6aa50"/>
      <stop offset="1" stop-color="#eecb67"/>
    </linearGradient>
    <linearGradient id="linear-gradient-10" x1="677.16" y1="231.16" x2="677.16" y2="852.13" gradientUnits="userSpaceOnUse">
      <stop offset="0" stop-color="#f4d16d"/>
      <stop offset=".45" stop-color="#cda048"/>
      <stop offset=".78" stop-color="#b48130"/>
      <stop offset=".97" stop-color="#eecb67"/>
    </linearGradient>
    <linearGradient id="linear-gradient-11" x1="564.82" y1="388.29" x2="564.82" y2="868.48" gradientUnits="userSpaceOnUse">
      <stop offset="0" stop-color="#b48130"/>
      <stop offset=".15" stop-color="#b78533"/>
      <stop offset=".31" stop-color="#c1913c"/>
      <stop offset=".47" stop-color="#d1a74c"/>
      <stop offset=".63" stop-color="#e8c462"/>
      <stop offset=".67" stop-color="#eecb67"/>
    </linearGradient>
    <linearGradient id="linear-gradient-12" x1="531.79" y1="386.37" x2="531.79" y2="590.5" gradientUnits="userSpaceOnUse">
      <stop offset="0" stop-color="#f4d16d"/>
      <stop offset=".73" stop-color="#c69741"/>
      <stop offset="1" stop-color="#b48130"/>
    </linearGradient>
    <linearGradient id="linear-gradient-13" x1="326.69" y1="408.62" x2="326.69" y2="531.86" xlink:href="#linear-gradient-2"/>
  </defs>
  <g class="cls-34">
    <path class="cls-3" d="M1217.02,389.61v63.8c0,15.5-12.19,28.26-27.67,28.97-104.31,4.79-190,41.11-241.31,102.27-31.3,37.32-46.31,81.49-41.16,121.19,4.64,35.77,25.91,65.43,63.21,88.17,30.31,18.47,60.01,25.19,60.31,25.26,13.35,2.88,22.8,14.67,22.8,28.33v107.52c0,16.01-12.98,29-29,29h-184.55c-10.66,0-20-5.02-25.05-14.38-2.5-3.89-31.95-46.51-116.37-46.51-41.31,0-77.75,8.43-105.39,24.37-19.16,11.06-28.04,22.26-29.22,23.8-5.3,8.39-14.05,12.72-24,12.72h-176.13c-16.01,0-29-12.99-29-29v-105.76c0-13.24,8.97-24.83,21.8-28.09,122.64-31.12,153.85-82.36,157.59-116.24,14.09-127.68-140.89-111.35-242.36-186.21-49.65-36.63-90.87-71.27-111.95-110.78-5.57-10.44-4.31-23.38,3.63-32.61,5.6-6.51,13.92-10.05,22.5-10.05h265.78c.74,0,7.07.03,14.25.09,1.07-8.86,5.19-21,17.9-37.44l191.06-193.15c5.45-5.51,12.87-8.61,20.62-8.61h.14c7.8.04,15.25,3.22,20.68,8.82l187.23,193.15c8.11,8.36,10.42,20.77,5.88,31.49-.12.3-.25.59-.38.88h279.16c16.01,0,29,12.98,29,29Z"/>
    <g class="cls-33">
      <path class="cls-18" d="M1188.01,453.41v-63.8h-380.78v228.19c0,20.18-21.57,92.67-171,169.88-9.46,4.89-18.99,9.43-28.46,13.65-.02,0-.04.02-.06.02-79.18,35.28-154.76,48-154.76,48,22.98-7,45.44-15.99,67.44-26.66-2.39.6-4.76,1.2-7.1,1.8,2.34-.6,4.71-1.2,7.1-1.79,86.18-41.81,165.06-109.33,238.85-183.41,6.75-6.78,10.54-15.96,10.54-25.53v-265.33h112.76l-187.23-193.16-191.06,193.16h114.39v213.36c0,87-20.57,225.85-255.14,287.57v105.75h176.13s40.58-60.89,158.61-60.89c106.48,0,141.43,60.89,141.43,60.89h184.55v-107.52s-131.86-28.45-146.08-138.03c-14.21-109.58,93.35-246.22,309.89-256.16Z"/>
      <path class="cls-21" d="M548.1,711.23s33.44-88.38,33.44-139.36v-192.17h-99.49v196.81c45.71,19.71,70,62.04,66.05,134.73Z"/>
      <path class="cls-29" d="M451.48,394.38H185.15c37.61,70.49,145.25,140.54,266.33,166.29v-166.29Z"/>
    </g>
    <g>
      <path class="cls-32" d="M983.37,854.18c-11.08-4.51-23.73-10.48-36.64-18.21-7.89-4.73-15.29-9.76-22.18-15.08,6.89,5.32,14.29,10.36,22.18,15.09,12.91,7.73,25.56,13.7,36.64,18.21Z"/>
      <path class="cls-32" d="M859.28,712.01c.5,3.87,1.16,7.69,1.93,11.46-.78-3.78-1.43-7.59-1.93-11.46-5.04-38.86,3.83-80.25,24.67-118.33-20.84,38.08-29.72,79.47-24.67,118.33Z"/>
      <path class="cls-32" d="M904.16,562.67c2.29-2.99,4.66-5.95,7.11-8.87.83-.99,1.7-1.96,2.54-2.94-.85.98-1.71,1.95-2.54,2.94-2.45,2.92-4.82,5.88-7.11,8.87Z"/>
      <path class="cls-32" d="M826.23,408.6v209.19c0,7.76-7.91,38.82-43.34,75.62-20.4,21.19-65.31,53-111.27,78.22,45.96-25.22,90.87-57.04,111.28-78.22,35.43-36.8,43.34-67.86,43.34-75.62v-209.19h342.78s-342.78,0-342.78,0Z"/>
      <polygon class="cls-32" points="539.64 863.84 382.5 863.84 382.49 863.84 539.64 863.84 539.64 863.84"/>
      <path class="cls-32" d="M799.63,829.22c34.27,15.27,48.93,32.83,48.93,32.83h156.64s0,0-.01,0h-156.63s-14.66-17.56-48.93-32.83Z"/>
      <polygon class="cls-19" points="549.76 329.42 504.24 348.42 618.63 348.42 637.63 329.42 549.76 329.42"/>
      <polygon class="cls-13" points="382.49 863.84 363.49 849.36 363.49 955.11 382.49 936.11 382.49 863.84"/>
      <path class="cls-7" d="M382.5,863.84h-.01c18.74-5.38,65.67-22.71,130.8-39.34,2.34-.6,4.71-1.2,7.1-1.79,86.18-41.81,165.06-109.33,238.85-183.41,6.75-6.78,10.54-15.96,10.54-25.53v-265.33l-19-19v284.33c0,4.58-1.78,8.89-5.01,12.13-52.06,52.27-98.88,93.15-143.12,124.98-29.35,21.11-57.85,38.54-85.99,52.54,0,0-78.03,42.46-153.17,45.97l19,14.48s0,0,0,0Z"/>
      <path class="cls-16" d="M637.63,561.79v-232.36l-19,19v213.36c0,87-20.57,225.85-255.14,287.57,75.14-3.51,153.17-45.97,153.17-45.97,120.98-82.87,120.97-197.08,120.97-241.61Z"/>
      <path class="cls-5" d="M782.9,693.42c35.43-36.8,43.34-67.86,43.34-75.62v-209.19h342.78l19-19h-380.78v228.19c0,20.18-21.57,92.67-171,169.88-9.46,4.89-18.99,9.43-28.46,13.65,19.83-7.16,41.96-17.68,63.85-29.69,45.96-25.22,90.88-57.04,111.27-78.22Z"/>
      <polygon class="cls-6" points="695.17 182.42 837.66 329.42 882.54 348.42 695.3 155.27 504.24 348.42 549.76 329.42 695.17 182.42"/>
      <polygon class="cls-19" points="750.78 329.42 769.78 348.42 882.54 348.42 837.66 329.42 750.78 329.42"/>
      <path class="cls-20" d="M1188.01,453.41l-19-17.84h0c-108.17,8.61-198.13,49.18-255.21,115.29-.85.98-1.71,1.95-2.54,2.94-2.45,2.92-4.82,5.88-7.11,8.87-7.65,9.99-14.39,20.37-20.21,31-20.84,38.08-29.71,79.47-24.67,118.33.5,3.87,1.16,7.69,1.93,11.46,7.81,38.04,29.41,71.22,63.33,97.42,6.89,5.32,14.29,10.35,22.18,15.08,12.91,7.73,25.56,13.7,36.64,18.21,8.37,3.41,15.84,5.99,21.83,7.86h-.01s0,0,.01,0l19-14.46s-131.86-28.45-146.08-138.03c-14.21-109.58,93.35-246.22,309.89-256.16Z"/>
      <polygon class="cls-4" points="1005.2 940.09 1024.2 955.11 1024.2 847.6 1005.2 862.05 1005.2 940.09"/>
      <polygon class="cls-26" points="1169.01 408.61 1169.02 408.61 1169.02 435.57 1188.01 453.41 1188.01 389.6 1169.01 408.6 1169.01 408.61"/>
      <polygon class="cls-14" points="849.33 940.09 839.65 955.11 1024.2 955.11 1005.2 940.09 849.33 940.09"/>
      <polygon class="cls-31" points="382.49 936.11 363.49 955.11 539.62 955.11 539.64 936.11 382.49 936.11"/>
      <path class="cls-28" d="M698.22,888.79c-92.94,0-149.45,41.27-155.41,47.32h-3.17l-.03,19s40.58-60.89,158.61-60.89c106.48,0,141.43,60.89,141.43,60.89l9.68-15.02c-15.66-19.31-59.98-51.3-151.11-51.3Z"/>
      <rect class="cls-9" x="382.49" y="863.84" width="157.15" height="72.27"/>
      <polygon class="cls-25" points="849.33 940.09 1005.2 940.09 1005.2 862.05 848.55 862.05 849.33 940.09"/>
      <path class="cls-24" d="M799.63,829.22c-26.37-11.75-64.35-22.14-116.22-22.14-106.41,0-143.76,56.76-143.76,56.76h0s0,0,0,0v72.27h3.17c5.96-6.05,62.47-47.32,155.41-47.32s135.44,31.99,151.11,51.3l-.78-78.04s-14.65-17.56-48.93-32.83Z"/>
      <path class="cls-23" d="M382.5,863.84h157.15s37.35-56.76,143.76-56.76c51.87,0,89.85,10.39,116.22,22.14,34.27,15.27,48.93,32.83,48.93,32.83h156.64c-5.99-1.87-13.46-4.45-21.83-7.86-11.08-4.51-23.73-10.48-36.64-18.21-7.89-4.73-15.29-9.76-22.18-15.09-33.93-26.2-55.52-59.38-63.33-97.42-.78-3.78-1.43-7.59-1.93-11.46-5.04-38.86,3.83-80.25,24.67-118.33,5.82-10.63,12.56-21.01,20.21-31,2.29-2.99,4.66-5.95,7.11-8.87.83-.99,1.7-1.96,2.54-2.94,57.08-66.11,147.04-106.68,255.21-115.29h0v-26.96h-342.78v209.19c0,7.76-7.91,38.82-43.34,75.62-20.4,21.19-65.32,53-111.28,78.22-21.89,12.01-44.02,22.53-63.85,29.69-.02,0-.04.02-.06.02-79.18,35.28-154.76,48-154.76,48,22.98-7,45.44-15.99,67.44-26.66-2.39.6-4.76,1.2-7.1,1.8-65.13,16.64-112.06,33.97-130.8,39.34h.01Z"/>
      <path class="cls-27" d="M695.17,182.42l-145.41,147h87.87v232.36c0,44.53.01,158.73-120.97,241.61,28.13-13.99,56.64-31.42,85.99-52.54,44.24-31.83,91.06-72.71,143.12-124.98,3.23-3.24,5.01-7.55,5.01-12.13v-284.33h86.88l-142.49-147Z"/>
      <polygon class="cls-1" points="501.05 398.69 482.05 379.69 482.05 576.5 501.05 564.62 501.05 398.69"/>
      <polygon class="cls-12" points="562.54 398.69 581.54 379.69 482.05 379.69 501.05 398.69 562.54 398.69"/>
      <path class="cls-11" d="M562.54,571.87c0,14.98-3.25,33.83-7.68,52.56,0,0,6.41,51.63-6.76,86.8,0,0,33.44-88.38,33.44-139.36v-192.17l-19,19v173.17Z"/>
      <path class="cls-22" d="M548.1,711.23c13.18-35.17,6.76-86.8,6.76-86.8-10.92-26.28-28.88-46.27-53.81-59.81l-19,11.88c45.71,19.71,70,62.04,66.05,134.73Z"/>
      <path class="cls-2" d="M562.54,398.69h-61.49v165.93c24.93,13.54,42.89,33.53,53.81,59.81,4.43-18.74,7.68-37.58,7.68-52.56v-173.17Z"/>
      <path class="cls-8" d="M432.48,536.63c-48.26-12.7-94.64-32.67-135.32-58.38-31.51-19.91-57.67-42.25-76.26-64.86l-35.75-19c37.61,70.49,145.25,140.54,266.33,166.29l-19-24.04Z"/>
      <polygon class="cls-30" points="432.48 536.63 451.48 560.67 451.48 394.38 432.48 413.38 432.48 536.63"/>
      <polygon class="cls-10" points="432.48 413.38 451.48 394.38 185.15 394.38 220.9 413.38 432.48 413.38"/>
      <path class="cls-17" d="M220.9,413.38c18.6,22.61,44.76,44.95,76.26,64.86,40.68,25.71,87.06,45.68,135.32,58.38v-123.24s-211.58,0-211.58,0Z"/>
    </g>
  </g>
</svg>